# xmcd CD database file
#
# Track frame offsets:
#	150
#	25463
#	39546
#	53553
#	75755
#	98133
#	115870
#	133425
#	152878
#	174502
#	198655
#	210491
#	230027
#	245178
#	268571
#	290775
#	312948
#	327780
#
# Disc length: 4623 seconds
#
# Revision: 1
# Processed by: cddbd v1.4PL0 Copyright (c) Steve Scherf et al.
# Submitted via: CDex 1.40Beta9
#
DISCID=07120d12
DTITLE=Diane Schuur - Diane For Everyday
DYEAR=2002
DGENRE=Blues
TTITLE0=Love Dance
TTITLE1=Caught A Touch Of Your Love
TTITLE2=Stormy Monday Blues
TTITLE3=Louisiana Sunday Afternoon
TTITLE4=Come Rain Or Come Shine
TTITLE5=Teach Me Tonight
TTITLE6=Funny (but! Istill love you)
TTITLE7=I'll Be Home for Christmas
TTITLE8=The Very Thought of You
TTITLE9=New York State Of Mind
TTITLE10=I'm Beginning To See The Light
TTITLE11=I'll Close My Eyes
TTITLE12=Amazing Grace
TTITLE13=Nobody Does Me
TTITLE14=What A Difference A Day Makes
TTITLE15=I Could Get Used To This
TTITLE16=You Dont Remember Me
TTITLE17=Music Is My Life
EXTD=YEAR: 2002 ID3G: 0
EXTT0=
EXTT1=
EXTT2=
EXTT3=
EXTT4=
EXTT5=
EXTT6=
EXTT7=
EXTT8=
EXTT9=
EXTT10=
EXTT11=
EXTT12=
EXTT13=
EXTT14=
EXTT15=
EXTT16=
EXTT17=
PLAYORDER=
